<?xml version="1.0" encoding="UTF-8" standalone="no"?><svg xmlns="http://www.w3.org/2000/svg" xmlns:xlink="http://www.w3.org/1999/xlink" contentStyleType="text/css" height="708px" preserveAspectRatio="none" style="width:394px;height:708px;background:#FFFFFF;" version="1.1" viewBox="0 0 394 708" width="394px" zoomAndPan="magnify"><defs/><g><ellipse cx="188" cy="20" fill="#222222" rx="10" ry="10" style="stroke:#222222;stroke-width:1.0;"/><rect fill="#F1F1F1" height="104.7969" rx="12.5" ry="12.5" style="stroke:#181818;stroke-width:0.5;" width="245" x="65.5" y="50"/><text fill="#000000" font-family="sans-serif" font-size="12" lengthAdjust="spacing" textLength="53" x="75.5" y="71.6016">start with</text><ellipse cx="81" cy="80.7656" fill="#000000" rx="2.5" ry="2.5" style="stroke:#000000;stroke-width:0.0;"/><text fill="#000000" font-family="sans-serif" font-size="12" lengthAdjust="spacing" textLength="215" x="85.5" y="85.7344">List of all courses taught by instructor</text><text fill="#000000" font-family="sans-serif" font-size="12" lengthAdjust="spacing" textLength="132" x="91.5" y="99.8672">* AcademicYearTaught</text><text fill="#000000" font-family="sans-serif" font-size="12" lengthAdjust="spacing" textLength="94" x="91.5" y="114">* %responsibility</text><text fill="#000000" font-family="sans-serif" font-size="12" lengthAdjust="spacing" textLength="50" x="91.5" y="128.1328">* Format</text><text fill="#000000" font-family="sans-serif" font-size="12" lengthAdjust="spacing" textLength="39" x="91.5" y="142.2656">* Level</text><rect fill="#F1F1F1" height="34.1328" rx="12.5" ry="12.5" style="stroke:#181818;stroke-width:0.5;" width="150" x="113" y="174.7969"/><text fill="#000000" font-family="sans-serif" font-size="12" lengthAdjust="spacing" textLength="130" x="123" y="196.3984">Filter out %resp &lt; 100</text><rect fill="#F1F1F1" height="34.1328" rx="12.5" ry="12.5" style="stroke:#181818;stroke-width:0.5;" width="227" x="74.5" y="272.9297"/><text fill="#000000" font-family="sans-serif" font-size="12" lengthAdjust="spacing" textLength="207" x="84.5" y="294.5313">Filter list for CompareAcademicYear</text><rect fill="#F1F1F1" height="62.3984" rx="12.5" ry="12.5" style="stroke:#181818;stroke-width:0.5;" width="198" x="89" y="327.0625"/><text fill="#000000" font-family="sans-serif" font-size="12" lengthAdjust="spacing" textLength="178" x="99" y="348.6641">reduce to distinct list based on</text><ellipse cx="104.5" cy="357.8281" fill="#000000" rx="2.5" ry="2.5" style="stroke:#000000;stroke-width:0.0;"/><text fill="#000000" font-family="sans-serif" font-size="12" lengthAdjust="spacing" textLength="40" x="109" y="362.7969">Format</text><ellipse cx="104.5" cy="371.9609" fill="#000000" rx="2.5" ry="2.5" style="stroke:#000000;stroke-width:0.0;"/><text fill="#000000" font-family="sans-serif" font-size="12" lengthAdjust="spacing" textLength="29" x="109" y="376.9297">Level</text><rect fill="#F1F1F1" height="34.1328" rx="12.5" ry="12.5" style="stroke:#181818;stroke-width:0.5;" width="180" x="98" y="409.4609"/><text fill="#000000" font-family="sans-serif" font-size="12" lengthAdjust="spacing" textLength="160" x="108" y="431.0625">Count number of list Entries</text><rect fill="#F1F1F1" height="34.1328" rx="12.5" ry="12.5" style="stroke:#181818;stroke-width:0.5;" width="147" x="114.5" y="512.0713"/><text fill="#000000" font-family="sans-serif" font-size="12" lengthAdjust="spacing" textLength="127" x="124.5" y="533.6729">add 1 to CourseCount</text><polygon fill="#F1F1F1" points="160.5,463.5938,215.5,463.5938,227.5,475.5938,215.5,487.5938,160.5,487.5938,148.5,475.5938,160.5,463.5938" style="stroke:#181818;stroke-width:0.5;"/><text fill="#000000" font-family="sans-serif" font-size="11" lengthAdjust="spacing" textLength="18" x="192" y="498.2285">yes</text><text fill="#000000" font-family="sans-serif" font-size="11" lengthAdjust="spacing" textLength="55" x="160.5" y="479.751">Count &gt; 0</text><text fill="#000000" font-family="sans-serif" font-size="11" lengthAdjust="spacing" textLength="14" x="227.5" y="473.2734">no</text><polygon fill="#F1F1F1" points="188,566.2041,200,578.2041,188,590.2041,176,578.2041,188,566.2041" style="stroke:#181818;stroke-width:0.5;"/><polygon fill="#F1F1F1" points="188,228.9297,200,240.9297,188,252.9297,176,240.9297,188,228.9297" style="stroke:#181818;stroke-width:0.5;"/><polygon fill="#F1F1F1" points="32,610.2041,344,610.2041,356,622.2041,344,634.2041,32,634.2041,20,622.2041,32,610.2041" style="stroke:#181818;stroke-width:0.5;"/><text fill="#000000" font-family="sans-serif" font-size="11" lengthAdjust="spacing" textLength="312" x="32" y="626.3613">CompareAcademicYear within 5 AcademicYears from start</text><text fill="#000000" font-family="sans-serif" font-size="11" lengthAdjust="spacing" textLength="18" x="356" y="619.8838">yes</text><ellipse cx="188" cy="686.4795" fill="none" rx="11" ry="11" style="stroke:#222222;stroke-width:1.0;"/><ellipse cx="188" cy="686.4795" fill="#222222" rx="6" ry="6" style="stroke:#111111;stroke-width:1.0;"/><line style="stroke:#181818;stroke-width:1.0;" x1="188" x2="188" y1="30" y2="50"/><polygon fill="#181818" points="184,40,188,50,192,40,188,44" style="stroke:#181818;stroke-width:1.0;"/><line style="stroke:#181818;stroke-width:1.0;" x1="188" x2="188" y1="154.7969" y2="174.7969"/><polygon fill="#181818" points="184,164.7969,188,174.7969,192,164.7969,188,168.7969" style="stroke:#181818;stroke-width:1.0;"/><line style="stroke:#181818;stroke-width:1.0;" x1="188" x2="188" y1="307.0625" y2="327.0625"/><polygon fill="#181818" points="184,317.0625,188,327.0625,192,317.0625,188,321.0625" style="stroke:#181818;stroke-width:1.0;"/><line style="stroke:#181818;stroke-width:1.0;" x1="188" x2="188" y1="389.4609" y2="409.4609"/><polygon fill="#181818" points="184,399.4609,188,409.4609,192,399.4609,188,403.4609" style="stroke:#181818;stroke-width:1.0;"/><line style="stroke:#181818;stroke-width:1.0;" x1="188" x2="188" y1="487.5938" y2="512.0713"/><polygon fill="#181818" points="184,502.0713,188,512.0713,192,502.0713,188,506.0713" style="stroke:#181818;stroke-width:1.0;"/><line style="stroke:#181818;stroke-width:1.0;" x1="227.5" x2="271.5" y1="475.5938" y2="475.5938"/><polygon fill="#181818" points="267.5,519.1377,271.5,529.1377,275.5,519.1377,271.5,523.1377" style="stroke:#181818;stroke-width:1.0;"/><line style="stroke:#181818;stroke-width:1.0;" x1="271.5" x2="271.5" y1="475.5938" y2="578.2041"/><line style="stroke:#181818;stroke-width:1.0;" x1="271.5" x2="200" y1="578.2041" y2="578.2041"/><polygon fill="#181818" points="210,574.2041,200,578.2041,210,582.2041,206,578.2041" style="stroke:#181818;stroke-width:1.0;"/><line style="stroke:#181818;stroke-width:1.0;" x1="188" x2="188" y1="546.2041" y2="566.2041"/><polygon fill="#181818" points="184,556.2041,188,566.2041,192,556.2041,188,560.2041" style="stroke:#181818;stroke-width:1.0;"/><line style="stroke:#181818;stroke-width:1.0;" x1="188" x2="188" y1="443.5938" y2="463.5938"/><polygon fill="#181818" points="184,453.5938,188,463.5938,192,453.5938,188,457.5938" style="stroke:#181818;stroke-width:1.0;"/><line style="stroke:#181818;stroke-width:1.0;" x1="188" x2="188" y1="252.9297" y2="272.9297"/><polygon fill="#181818" points="184,262.9297,188,272.9297,192,262.9297,188,266.9297" style="stroke:#181818;stroke-width:1.0;"/><line style="stroke:#181818;stroke-width:1.0;" x1="356" x2="368" y1="622.2041" y2="622.2041"/><polygon fill="#181818" points="364,436.3057,368,426.3057,372,436.3057,368,432.3057" style="stroke:#181818;stroke-width:1.0;"/><line style="stroke:#181818;stroke-width:1.0;" x1="368" x2="368" y1="240.9297" y2="622.2041"/><line style="stroke:#181818;stroke-width:1.0;" x1="368" x2="200" y1="240.9297" y2="240.9297"/><polygon fill="#181818" points="210,236.9297,200,240.9297,210,244.9297,206,240.9297" style="stroke:#181818;stroke-width:1.0;"/><line style="stroke:#181818;stroke-width:1.0;" x1="188" x2="188" y1="590.2041" y2="610.2041"/><polygon fill="#181818" points="184,600.2041,188,610.2041,192,600.2041,188,604.2041" style="stroke:#181818;stroke-width:1.0;"/><line style="stroke:#181818;stroke-width:1.0;" x1="188" x2="188" y1="208.9297" y2="228.9297"/><polygon fill="#181818" points="184,218.9297,188,228.9297,192,218.9297,188,222.9297" style="stroke:#181818;stroke-width:1.0;"/><line style="stroke:#181818;stroke-width:1.0;" x1="188" x2="188" y1="634.2041" y2="675.4795"/><polygon fill="#181818" points="184,665.4795,188,675.4795,192,665.4795,188,669.4795" style="stroke:#181818;stroke-width:1.0;"/><text fill="#000000" font-family="sans-serif" font-size="11" lengthAdjust="spacing" textLength="14" x="192" y="655.6592">no</text><!--MD5=[a95cc626bfe980cd65c93c9939c87d9a]
@startuml SRoR

start
:start with
* List of all courses taught by instructor
    * AcademicYearTaught
    * %responsibility
    * Format
    * Level;
:Filter out %resp < 100;
repeat
    :Filter list for CompareAcademicYear;
    :reduce to distinct list based on
    *Format
    *Level;
    :Count number of list Entries;
    if (Count > 0) then (yes)
        :add 1 to CourseCount;
    else (no)
    endif
       
repeat while (CompareAcademicYear within 5 AcademicYears from start) is (yes)
->no;
stop
@end

PlantUML version 1.2022.7(Mon Aug 22 13:01:30 EDT 2022)
(GPL source distribution)
Java Runtime: OpenJDK Runtime Environment
JVM: OpenJDK 64-Bit Server VM
Default Encoding: UTF-8
Language: en
Country: CA
--></g></svg>